<svg xmlns="http://www.w3.org/2000/svg" viewBox="0 0 2275.88 1726.29"><defs><style>.cls-1{fill:#ededed;}.cls-2{fill:#fee500;}</style></defs><g id="Layer_2" data-name="Layer 2"><g id="Layer_1-2" data-name="Layer 1"><path class="cls-1" d="M1368.26,876.2c-12.52,5.39-25,11-37.58,16.13-44.25,18-89.13,34-137.42,36.52-23.65,1.24-46.54-.66-64.51-20-5.39-5.81-14.48-8-21.26-12.77-2.71-1.89-3.62-6.24-5.54-9.36-18-29.21-13.62-57.78,2.7-85.83,6-10.33,11.74-21,19.22-30.24,9.11-11.21,18.93-22.29,30.19-31.19,25.77-20.38,52.89-39,79-59,34.7-26.64,69.58-53.05,111.7-66.89,11.74-3.86,24.89-3.49,37.41-4.89,68.5-7.68,135.93-19.84,199.66-47.53,12.94-5.62,26-11.1,39.7-17,10.71,8.06,22,17.05,33.88,25.11,3,2,9,2.81,12,1.19,77.3-42.14,154.1-85.21,231.62-126.94q76.85-41.38,155.34-79.7c31.32-15.37,64.5-26.42,99.23-31.49,13-1.9,24.11,2.36,35,11.07,21.46,17.2,44.48,32.46,66.88,48.5.85.61,1.87,1,2.38,2.33-16.16-3.87-31.67-4.42-49.35,2.51,16.17,11.74,30.91,22.18,45.35,33,8.06,6.05,20.31,11.77,22,19.52,1.52,7-8.1,17.06-13.86,25q-70,96.75-140.42,193.18-38.27,52.46-77,104.55c-16.31,21.83-33.68,42.86-49.81,64.82-23,31.3-44.93,63.38-68,94.64-18.84,25.56-38.85,50.25-58,75.58q-62.19,82.32-124,164.91a35.19,35.19,0,0,0-2,3.65l22.26,16.48c-51.46,62.89-103,125.88-156.57,191.38h129.59c-7-5.59-14-10.71-20.35-16.57-1.86-1.73-3.09-6-2.34-8.39,15.1-47.69,44.69-86.19,78.06-122.3,34.39-37.23,69.48-73.87,102.59-112.2,22.69-26.26,40.95-55.94,55.09-90.14,9.15,6.1,18.31,11.73,26.94,18.08,10.56,7.78,20.35,16.62,31.09,24.12,7.26,5.08,6.93,10.18,3.25,16.92-6,11-11.12,22.63-17.71,33.32a358.22,358.22,0,0,1-24.71,35.5c-12,15-24.67,29.58-37.72,43.73-19.25,20.86-39.53,40.8-58.54,61.87-15.67,17.36-30.25,35.7-45.09,53.79-8.29,10.11-17,20.06-23.92,31-6.52,10.29-11,21.84-17.61,35.26h65.82c-.06.37.38-.58.1-.91-10.74-12.33-10.29-12.1-2.51-28.43,15.91-33.38,39.61-60.82,64.36-87.74q33.55-36.51,65.2-74.74c5.35-6.44,7.36-15.64,11.63-25.19,18.23,15,36.29,29.51,53.88,44.56,6.18,5.28,3.28,27.13-3.58,34.62q-28.39,31.07-56.61,62.28c-14.07,15.57-28.31,31-41.88,47-6.95,8.2-12.75,17.39-18.67,26.4-1.18,1.78-.55,4.75-.86,8.45,4.12.34,8.05,1.62,11.46.78,9.29-2.28,13,1.35,15.56,10.18,8.05,27.23,17.08,54.17,25.69,81.24,1,3.28,1.81,6.66,2.58,9.53-15.9,0-31.07.46-46.21-.07-116.79-4.11-233.55-9.24-350.37-12.43-149.52-4.09-299.11-3.21-448.3,7.82-88.47,6.53-176.85,16.45-264.65,29.13-107.16,15.46-213.65,35.49-320.46,53.39q-68.28,11.44-136.67,22.27c-26.95,4.31-49.45-8-64.9-36.26-11.93-21.79-23.1-44-34.21-66.23-1.54-3.08-.79-7.31-1.1-11,3.35,1,7.41,1.21,9.94,3.25,26.22,21.16,56.45,16.07,85.42,11.36,113.55-18.48,226.74-39.2,340.34-57.34,115.36-18.41,230.84-36.34,347.56-44.23,25.86-1.75,51.7-3.86,77.54-5.82,3-.23,6-.61,9.06-.91l1.08-2.8c-9.51-5.19-19.09-10.26-28.49-15.65a60.6,60.6,0,0,1-10.17-7.42c-16.81-15.12-33.26-30.65-50.35-45.44-5.61-4.86-3.2-8.49-.49-12.75,16.49-25.9,33-51.83,49.61-77.63q27-41.77,54.29-83.35,64.17-97.8,128.46-195.52,20.33-31,40.43-62a81.42,81.42,0,0,0,3.76-7.25Zm618.52-191.48-2.52-3.13c-6,3.88-11.83,8-18,11.6-36.89,21.28-73.27,43.52-110.92,63.36-56.61,29.82-114.48,56.64-179.1,65.09-27.83,3.64-53.23.63-75.33-18.25-10.48-9-21.72-17-32.05-26.14-7-6.18-11.86-2.8-15.6,2.77-17.54,26.11-34.59,52.55-52,78.75-17.61,26.49-35.61,52.73-53.12,79.29-14.5,22-28.23,44.53-42.88,66.44-16.32,24.41-33.67,48.13-49.91,72.6-20.55,31-40.44,62.37-60.59,93.59-9.36,14.5-18.67,29-28.51,44.33l23.11,17.21-100,154.92,382.25-7-65.52-46.23ZM2144.11,434c16.73,11,16.73,11,28.58-4.58.86-1.13,1.83-2.17,2.61-3.35,4.85-7.29,9.65-14.62,15.9-24.12-4.69.49-6.07.33-7.2.79-24.09,9.77-48.76,18.34-72.08,29.71-38.53,18.79-76.26,39.25-114.19,59.27-36.21,19.11-72.6,37.93-108.27,58-58.17,32.75-116.24,65.73-173.53,100-37.09,22.19-72.49,47.23-100.16,81.17-6.13,7.52-13.38,16.13-9.62,29.86,23.21-6.36,46.7-10.52,68.35-19.25,38.93-15.68,77.48-32.68,114.81-51.79,35.44-18.15,69.9-38.49,103.37-60.08,43.6-28.11,86.39-57.57,128.42-88C2065.15,509.77,2107.68,475.83,2144.11,434Zm-609,196.79c-3.43-.16-4.94-.65-6.11-.22-20.56,7.45-41.41,14.25-61.54,22.74-31.82,13.43-63.17,28-94.7,42.11-47.09,21.13-92.64,45-134.18,75.93-33.61,25-68.36,48.8-93.67,83.15-1.62,2.21-1.92,5.4-2.84,8.13,2.64.53,5.57,2.1,7.87,1.44,31.12-9,62.86-16.39,93.07-27.83,56.39-21.35,108.14-52.07,157.81-85.92,22.91-15.62,44.13-33.8,65.51-51.55,7.43-6.16,13.05-14.5,19.36-21.69,13.73,8.39,13.73,8.38,22.08-3.87,1.19-1.74,2.53-3.39,3.66-5.17C1519.13,656.05,1526.76,644,1535.15,630.81Z"/><path class="cls-1" d="M785.78,492.38,797.33,474c17.11,11.68,33.83,23.1,50.57,34.5,6.11,4.16,12.31,8.2,18.42,12.36,8.29,5.66,9,15.15,3.74,23.85-5.77,9.55-9.84,20.12-14.95,30.1-5.59,10.93-11.74,21.59-17.22,32.57-4.92,9.85-9.12,20.06-13.9,30-7.22,15-14.71,29.78-22,44.69-9.15,18.64-18.18,37.34-27.37,56-7.22,14.62-14.66,29.13-21.9,43.74-7,14.19-13.87,28.46-20.87,42.66-7.21,14.64-14.68,29.15-21.72,43.87-6.46,13.5-12.25,27.33-18.81,40.79-7.12,14.62-14.89,28.93-22.19,43.48-4.74,9.45-9,19.13-13.7,28.62-5.63,11.47-11.75,22.71-17.08,34.31-4.6,10-7.92,20.65-12.64,30.62-6.69,14.16-14.41,27.83-21.2,41.94-7,14.67-13.28,29.74-20.28,44.43s-14.47,28.94-21.68,43.42c-8.27,16.6-16.43,33.26-24.71,49.85-5.27,10.56-10.68,21-17,33.51L690.61,1222c-2.87,21.43-5.35,40.32-8,59.19-2,14.41-4.25,28.79-6.1,43.22-.73,5.64-2.68,7.9-9,9.29q-65.87,14.49-131.42,30.5c-22.57,5.48-44.83,12.22-67.27,18.22-8.17,2.19-13.55,5.56-16.81,14.79-4.32,12.19-12.45,23-18.52,34.62-5.46,10.45-10.18,21.29-15.59,31.77-2.65,5.14-6.11,9.85-9.93,15.91-20.77-14.48-41-27.91-60.38-42.39-8.84-6.6-16.75-7.43-26.39-2.8-35,16.81-70.24,33.2-105.25,50-6.62,3.19-12.61,7.71-21.21,13.06l67,4.52c.7,0,1.42-.06,2.13,0,18.22.46,18,.5,18.38,18.39.47,21.21,1.5,42.39,2.24,63.59.12,3.44,0,6.88,0,12.09-96.8-12.07-189.29-5.88-272.75,48.75-3.49-21.8-10.44-42.87-9.26-65.65,1-20-2.13-40.22-2.53-60.36-.08-4.36,2.45-10.55,5.86-12.92,37-25.83,74-51.81,111.9-76.23,31.11-20,63.55-38,96.57-57.58-12.14-7.2-23.54-14.72-35.64-20.84-7.18-3.62-8.11-7.78-6.44-14.9,9.36-39.76,29.49-74.39,51.58-108,17.54-26.66,37.21-52,53.82-79.18,8.93-14.62,13.41-31.95,20.18-48.77,14.61,8.9,31.13,18.8,47.38,29.1,2,1.25,3.47,4.68,3.6,7.17.59,11.61.32,21.86-5.92,33.73-15.4,29.3-36,54.63-54.48,81.62-10.86,15.87-21.6,32-30.64,48.9-6.84,12.81-10.8,27.15-16.26,40.72-1.54,3.82-4.13,7.21-5.7,11-1.17,2.84-1.49,6-2.81,11.78,15.63-7.27,28.3-13.73,41.4-19.13,35.56-14.64,71.19-29.13,107.08-42.93,7.46-2.88,12.76-6.48,16.21-13.57q28.31-58.14,56.86-116.14c22.55-45.95,45.32-91.79,67.63-137.85C544.81,988,566.91,941,589.43,894.28c16.84-35,34-69.8,51-104.72a28.1,28.1,0,0,0,3.14-13.95c-3,2.34-6.49,4.29-9,7.09-23.7,26.4-53.82,44.46-82.88,63.87-30.87,20.62-64.6,37.24-91,64.17-10.15,10.36-17.65,22.2-24.13,35.63-10.39,21.56-8.49,41.69-.11,62.07,3.57,8.7,10.4,16,16.25,24.77-14.3-8.37-28.36-16.54-42.36-24.8-10.64-6.28-21-13-31.83-19-28.52-15.9-41.22-45.88-33.33-77.26,7.93-31.57,27.21-54.83,53.2-72.67,32.6-22.38,66.17-43.35,99-65.41,34.91-23.44,63.15-54.14,92.41-84C638,640.79,669.3,580.68,702.87,521.9c10.3-18,19.47-36.72,28.81-55.29,2.72-5.42,5.45-5.32,10-2.38C756.07,473.62,770.66,482.76,785.78,492.38Z"/><path class="cls-2" d="M918.94,215.13c24.23,25.71,49.88,48.55,80.28,65.52,23.21,12.94,47.68,22,74.44,23.89,42.27,3,77-13.54,106.57-42.19,39.06-37.85,63.53-85.06,84.6-134.31,3.07-7.18,5.79-14.52,8.48-21.85,6.19-16.86,6.14-16.88,25.2-21,2.42,5,5.08,10.23,7.57,15.57A313.38,313.38,0,0,0,1373.33,195c27.22,26.19,58.84,43.44,98.25,41.1,23.2-1.37,44.19-10.05,64.37-20.78,44.38-23.59,82.66-55.54,117.42-91.16C1689.29,87.3,1722.66,48,1757.13,9.77c2.51-2.78,4.88-5.7,8.35-9.77,9.9,24.33,19.27,46.94,28.15,69.74,1,2.45.13,6.76-1.54,8.88-19.44,24.7-39.38,49-58.81,73.69-20.92,26.56-42.83,52.5-61.74,80.45-18.72,27.68-34.27,57.5-51.14,86.43-3.62,6.22-7.23,12.48-10.33,19-4.87,10.18-9.8,20.4-13.61,31-1.1,3.06.79,7.87,2.59,11.17,5.82,10.66,7,20.76,2.86,32.87-10.82,31.63-36.3,47.47-64,59.66-32.22,14.17-65,28.09-98.82,37.41-39.2,10.8-79.63,17.73-119.89,24-29.08,4.5-58.74,6.49-88.19,7.08-32.17.64-64.64.5-96.52-3.24-30.16-3.54-59.87-11.62-89.45-19-7.35-1.83-13.83-8.16-20-13.23-12.6-10.27-24.77-21.07-37.08-31.7-8.72-7.53-9.1-13.14-.89-21.16,5.55-5.42,11.13-11.09,17.61-15.21,6.29-4,5.77-7.49,2.55-12.92C986.32,389.7,964.85,355,938.52,323.49q-13.57-16.22-26.73-32.78c-9.89-12.48-19.76-25-29-37.95-1.31-1.84-.21-7.5,1.71-9.2C895.36,233.94,906.83,225,918.94,215.13Zm641.6,71.21c-26.11,4.15-51.21,8.51-76.43,12.05-28.49,4-56.79,2.16-82.57-11.3a489.42,489.42,0,0,1-96-65.92c-3.89-3.41-7.8-6.81-12.17-10.63-9.4,16.61-18.22,32-26.81,47.41-20.65,37.22-45.25,70.64-85,89.76-7.68,3.69-15.37,7.43-22.78,11.62-12.47,7.07-25.92,8.27-39.86,8-15.67-.32-31.34-.08-48-.08,5.26,8.94,10,18,15.81,26.21,1.53,2.16,6.71,3.14,9.8,2.54,11.73-2.29,23.2-5.83,34.91-8.22,38.33-7.83,76.73-15.86,116.16-13,11.78.87,25.23,1.83,34.55,7.9,14.13,9.2,25.32,22.9,37.76,34.69l-.69,2.56c-4.11-.76-8.2-1.61-12.33-2.26-9.94-1.56-20.36-5.67-29.79-4.07-35.31,6-70.63,12.59-105.32,21.4-36.65,9.3-72.48,21.68-104.2,43.32-2.72,1.85-4.91,4.51-7.34,6.79,29.8,4.53,58.36,8,86.93,8.1,28.07.1,56.28-2,84.19-5.27,37.65-4.35,75.8-7.77,112.42-16.9,42.94-10.71,84.81-26.15,126.45-41.44,24.2-8.89,46.84-21.74,64.77-41.28,14.61-15.9,16.65-29,6.65-44.88-.28-.45.12-1.33.21-2.15,15-9.15,19.53,8.89,30.58,12.32C1570.81,329.84,1544,311.57,1560.54,286.34Z"/><path class="cls-1" d="M961.19,767.05l-34.87-23.6c-.81,11.54-.46,21.16-2.31,30.32-4.74,23.44-10.82,46.6-15.61,70-2,9.94-1.48,20.4-3.4,30.38-1.69,8.79-6.11,17.07-7.69,25.87-4.39,24.36-7.86,48.88-11.84,73.31-2.23,13.66-2.88,28-7.62,40.73-7,19-7.42,38.7-11,58-1.24,6.71-4.24,13.08-5.66,19.77-.74,3.52.18,7.39.36,11.1l2.73,1,179-288.54c-3.29,45.92,5.66,87.09,39.27,120.66l-283.74,457c-14.26-11.74-28.92-23.79-43.56-35.86-5.17-4.27-9.83-9.42-15.57-12.69-12.66-7.2-13.42-16.95-10.76-30.18,13.58-67.64,26.14-135.48,39.26-203.21,14.78-76.34,30-152.59,44.62-229,13.28-69.51,25.81-139.17,38.91-208.72,7.05-37.39,14.57-74.68,22-112,2-10.2,4.8-11.62,13.15-5.94,21,14.29,42.05,28.46,62.23,43.81,4.61,3.51,7.56,11.44,8.12,17.63,1.92,21.09,2.55,42.3,3.44,63.48.46,10.95.52,21.92.58,32.88C961.26,730.29,961.19,747.22,961.19,767.05Z"/><path class="cls-1" d="M658.53,1630.05c32.39,7.25,63.16-4.2,94.34-8.87,87.71-13.16,175.16-28,262.82-41.61,97.21-15.07,194.85-27.16,293.16-31.46,97.86-4.29,195.82-6.53,293.76-8.44,25.77-.5,51.66,3.23,77.43,5.77,4,.39,9.91,4,11,7.45,11.26,33.62,21.69,67.52,32.84,102.9-4.38,0-7.75.4-11,0-90.77-12.62-182-12.33-273.29-9.47-107.28,3.36-214.1,11.82-320.27,27.83-101.44,15.29-202.74,31.56-304.32,45.87-32.89,4.63-66.46,4.62-99.73,6.29-12.08.61-17.58-9.55-21.77-17.91-12.56-25-23.63-50.81-35.24-76.33C658.08,1631.51,658.44,1630.72,658.53,1630.05Z"/><path class="cls-1" d="M92.06,1386.6c-21.6-11.24-40.68-21-59.52-31.26-1.82-1-3.26-5-2.88-7.35a289.22,289.22,0,0,1,40.73-108c21.36-34,44.63-66.84,66.57-100.5,23.33-35.78,49.83-69.7,66.67-109.37,9.55-22.49,18-45.43,27.57-69.72,1.52.48,5.55,1.15,9,2.93,13.47,7,26.8,14.25,40.08,21.58,10.15,5.6,11,10.45,6.51,21-4.64,11-7.7,22.7-11.76,34a131.78,131.78,0,0,1-7.79,18.1c-9.82,18.18-19.11,36.74-30.27,54.08-15.3,23.77-32.28,46.45-48.23,69.81-9.54,14-18.48,28.34-27.68,42.54-10.45,16.11-21.44,31.9-31.12,48.46-6.29,10.76-10.6,22.67-15.9,34s-11.13,22.45-15.89,34c-2.22,5.39-2.79,11.55-3.52,17.43C93.57,1366.91,93,1375.54,92.06,1386.6Z"/><path class="cls-1" d="M1107.48,715c9.34-14.83,18.36-29.89,28.19-44.39,4.21-6.22,3.51-9.92-2.47-13.89-6.47-4.3-12.63-9.07-18.8-13.79-4.58-3.51-6.64-7.5-1.17-12.07,11.62-9.71,23.15-19.54,35-29a12.24,12.24,0,0,1,8.42-2.26c26.81,3.77,53.57,7.89,80.35,11.94,2,.3,3.9.83,9.58,2.06l-137,103Z"/><path class="cls-1" d="M1025.07,1283.78l-104.58,16.16,39.12-63.48Z"/></g></g></svg>